<?xml version="1.0" encoding="UTF-8" standalone="no"?>
<!-- Created with Inkscape (http://www.inkscape.org/) -->

<svg
   width="3636"
   height="1800"
   viewBox="0 0 962.025 476.25001"
   version="1.1"
   id="svg8"
   inkscape:export-filename="C:\Users\厂永刄先生\Documents\GXI3CW2\,pjóŭ\Ghana.png"
   inkscape:export-xdpi="96"
   inkscape:export-ydpi="96"
   inkscape:version="1.3 (0e150ed6c4, 2023-07-21)"
   sodipodi:docname="ly_2011_000-001.svg"
   xmlns:inkscape="http://www.inkscape.org/namespaces/inkscape"
   xmlns:sodipodi="http://sodipodi.sourceforge.net/DTD/sodipodi-0.dtd"
   xmlns="http://www.w3.org/2000/svg"
   xmlns:svg="http://www.w3.org/2000/svg"
   xmlns:rdf="http://www.w3.org/1999/02/22-rdf-syntax-ns#"
   xmlns:cc="http://creativecommons.org/ns#"
   xmlns:dc="http://purl.org/dc/elements/1.1/">
  <defs
     id="defs2" />
  <sodipodi:namedview
     id="base"
     pagecolor="#ffffff"
     bordercolor="#666666"
     borderopacity="1.0"
     inkscape:pageopacity="0.0"
     inkscape:pageshadow="2"
     inkscape:zoom="0.30222223"
     inkscape:cx="1614.7058"
     inkscape:cy="398.71323"
     inkscape:document-units="px"
     inkscape:current-layer="layer1"
     showgrid="false"
     units="px"
     fit-margin-top="0"
     fit-margin-left="0"
     fit-margin-right="0"
     fit-margin-bottom="0"
     inkscape:showpageshadow="false"
     inkscape:snap-intersection-paths="true"
     inkscape:object-paths="false"
     inkscape:pagecheckerboard="true"
     inkscape:snap-smooth-nodes="false"
     inkscape:window-width="1920"
     inkscape:window-height="1009"
     inkscape:window-x="-8"
     inkscape:window-y="-8"
     inkscape:window-maximized="1"
     inkscape:object-nodes="true"
     inkscape:snap-nodes="true"
     inkscape:deskcolor="#505050" />
  <metadata
     id="metadata5">
    <rdf:RDF>
      <cc:Work
         rdf:about="">
        <dc:format>image/svg+xml</dc:format>
        <dc:type
           rdf:resource="http://purl.org/dc/dcmitype/StillImage" />
      </cc:Work>
    </rdf:RDF>
  </metadata>
  <g
     inkscape:label="レイヤー 1"
     inkscape:groupmode="layer"
     id="layer1"
     transform="translate(-104.63962,-614.81464)">
    <path
       id="rect3"
       style="fill:#1ab2ff;stroke-width:23.3777;stroke-linecap:round;stroke-linejoin:round;stroke-miterlimit:5"
       d="m 114.16461,1091.0646 0,-238.12496 h 476.25 v -238.125 h 476.24999 v 476.24996 z"
       sodipodi:nodetypes="ccccccc" />
    <path
       style="fill:none;stroke:#ffffff;stroke-width:12.7;stroke-linecap:round;stroke-linejoin:round;stroke-miterlimit:5;stroke-dasharray:none;stroke-opacity:1"
       d="m 886.37283,848.93031 c 2.62655,64.7675 -80.30147,26.56535 -120.09441,118.05115"
       id="path4"
       sodipodi:nodetypes="cc" />
    <path
       id="path6"
       style="color:#000000;fill:none;fill-opacity:1;stroke:#1ab2ff;stroke-width:4.76250005;stroke-dasharray:none;stroke-opacity:1"
       d="m 843.04053,847.66325 3.65548,92.61322 c 0.38343,9.71459 10.56761,16.88209 24.63049,16.88209 50.91069,0 80.32339,-77.02829 83.46508,-94.40209 4.2488,10.3324 8.8538,28.83657 5.88451,42.38539 -1.171,-2.30707 -4.18711,-6.23547 -7.132,-6.2916 0,0 -17.56215,55.2892 -41.7381,70.0525 -34.89314,21.30787 -76.21686,30.5768 -83.26637,42.78684 -7.0495,-12.21004 -48.37322,-21.47897 -83.26637,-42.78684 -24.17594,-14.7633 -41.73809,-70.0525 -41.73809,-70.0525 -2.94489,0.0561 -5.961,3.98453 -7.132,6.2916 -2.96929,-13.54882 1.63571,-32.05299 5.88451,-42.38539 3.14169,17.3738 32.55438,94.40209 83.46507,94.40209 14.06288,0 24.24707,-7.1675 24.6305,-16.88209 l 3.65548,-92.61322 z"
       sodipodi:nodetypes="ccscccscscccsccc" />
    <path
       id="path216"
       style="color:#000000;fill:#ffffff;fill-opacity:1;stroke:none;stroke-width:0.706573;stroke-dasharray:none;stroke-opacity:1"
       d="m 815.18901,718.68982 c 0,7.4366 5.91371,13.3436 13.35061,13.3436 7.4369,0 13.3506,-5.907 13.3506,-13.3436 0,-7.43698 -5.9137,-13.34529 -13.3506,-13.34529 -7.4369,0 -13.35061,5.90831 -13.35061,13.34529 z m 37.8506,0 c 0,9.79551 -5.84499,18.3002 -14.21309,22.2104 l 7.86946,199.37625 c 0.38344,9.71459 10.56763,16.88209 24.63052,16.88209 50.91068,0 80.32336,-77.02829 83.46507,-94.40209 4.2488,10.3324 8.8538,28.83657 5.8845,42.38539 -1.17101,-2.30707 -4.1871,-6.23547 -7.132,-6.2916 0,0 -17.56214,55.2892 -41.73809,70.0525 -34.89313,21.30787 -76.21686,30.5768 -83.26636,42.78684 -7.0495,-12.21004 -48.37322,-21.47897 -83.26637,-42.78684 -24.17594,-14.7633 -41.73809,-70.0525 -41.73809,-70.0525 -2.94489,0.0561 -5.961,3.98453 -7.132,6.2916 -2.96929,-13.54882 1.63571,-32.05299 5.88451,-42.38539 3.14169,17.3738 32.55438,94.40209 83.46507,94.40209 14.06288,0 24.24707,-7.1675 24.6305,-16.88209 l 7.86946,-199.37625 c -8.36808,-3.91021 -14.21306,-12.41489 -14.21306,-22.2104 0,-13.4644 11.03578,-24.50018 24.49998,-24.50018 13.46419,0 24.49999,11.0358 24.49999,24.50018 z"
       sodipodi:nodetypes="szszssccscccscscccsccszs" />
    <path
       id="rect2"
       style="fill:#00a800;stroke-width:23.3777;stroke-linecap:round;stroke-linejoin:round;stroke-miterlimit:5"
       d="m 114.1646,793.40839 h 476.25 l 1e-5,59.53125 h -476.25 z"
       sodipodi:nodetypes="ccccc" />
    <rect
       style="fill:#ffffff;fill-opacity:1;stroke:none;stroke-width:4.67553;stroke-linecap:round;stroke-linejoin:round;stroke-miterlimit:5;stroke-dasharray:none;stroke-opacity:1"
       id="rect4"
       width="9.5250006"
       height="476.25"
       x="104.63962"
       y="614.81464" />
    <path
       style="fill:none;stroke:#1ab2ff;stroke-width:16.9333;stroke-linecap:butt;stroke-linejoin:round;stroke-miterlimit:5;stroke-dasharray:none;stroke-opacity:1"
       d="m 822.81772,723.07834 c -14.07584,8.55791 -38.56411,28.17769 -28.88868,61.90435 11.56572,40.31586 90.31541,11.46402 92.44379,63.94762"
       id="path7"
       sodipodi:nodetypes="csc" />
    <path
       style="fill:none;stroke:#ffffff;stroke-width:12.7;stroke-linecap:round;stroke-linejoin:round;stroke-miterlimit:5;stroke-dasharray:none;stroke-opacity:1"
       d="m 822.81772,723.07834 c -14.07584,8.55791 -38.56411,28.17769 -28.88868,61.90435 11.56572,40.31586 90.31541,11.46402 92.44379,63.94762"
       id="path1"
       sodipodi:nodetypes="csc" />
    <path
       style="fill:#000000;fill-opacity:1;stroke:none;stroke-width:0.639585px;stroke-linecap:butt;stroke-linejoin:miter;stroke-opacity:1"
       d="m 590.4146,793.40839 h -476.25 v -119.0625 h 476.25 z"
       id="path819"
       inkscape:connector-curvature="0"
       sodipodi:nodetypes="ccccc" />
    <path
       style="fill:#ffffff;fill-opacity:1;fill-rule:evenodd;stroke:none;stroke-width:43.1722;stroke-linecap:square;stroke-linejoin:round;stroke-miterlimit:4;stroke-dasharray:none;stroke-dashoffset:0;stroke-opacity:1"
       d="m 352.28962,704.11152 c -16.43912,0 -29.76563,13.32652 -29.76563,29.76563 0,16.4391 13.32651,29.76562 29.76563,29.76562 8.21422,0 15.65125,-3.32736 21.03695,-8.70774 -4.23382,3.02484 -9.41767,4.80514 -15.01768,4.80514 -14.28377,0 -25.86302,-11.57927 -25.86302,-25.86302 0,-14.28376 11.57925,-25.86303 25.86302,-25.86303 5.60001,0 10.78386,1.78031 15.01768,4.80514 -5.3857,-5.38037 -12.82274,-8.70774 -21.03695,-8.70774 z"
       id="path821"
       inkscape:connector-curvature="0"
       sodipodi:nodetypes="szscszscs" />
    <path
       style="fill:#ffffff;fill-opacity:1;fill-rule:evenodd;stroke:none;stroke-width:75.2485;stroke-linecap:square;stroke-linejoin:round;stroke-miterlimit:4;stroke-dasharray:none;stroke-dashoffset:0;stroke-opacity:1"
       inkscape:transform-center-x="2.035811e-06"
       inkscape:transform-center-y="8.0654067e-06"
       d="m 384.17191,738.84887 -15.30142,-4.97173 15.30142,-4.97172 -2e-5,-16.08885 9.45679,13.01615 15.30141,-4.97172 -9.4568,13.01615 9.4568,13.01614 -15.30141,-4.97172 -9.45679,13.01614 z"
       id="path832"
       inkscape:connector-curvature="0"
       sodipodi:nodetypes="ccccccccccc" />
    <path
       id="path8"
       style="fill:#ff0000;stroke-width:23.3777;stroke-linecap:round;stroke-linejoin:round;stroke-miterlimit:5"
       d="m 114.16461,614.81464 h 476.25 l -1e-5,59.53125 h -476.25 z"
       sodipodi:nodetypes="ccccc" />
  </g>
</svg>
