<?xml version="1.0" encoding="UTF-8" standalone="no"?>
<!-- Created with Inkscape (http://www.inkscape.org/) -->

<svg
   width="3636"
   height="1800"
   viewBox="0 0 962.02499 476.25001"
   version="1.1"
   id="svg8"
   inkscape:export-filename="C:\Users\厂永刄先生\Documents\GXI3CW2\,pjóŭ\Mongolie.png"
   inkscape:export-xdpi="96"
   inkscape:export-ydpi="96"
   inkscape:version="1.3 (0e150ed6c4, 2023-07-21)"
   sodipodi:docname="ru-bu_1992.svg"
   xmlns:inkscape="http://www.inkscape.org/namespaces/inkscape"
   xmlns:sodipodi="http://sodipodi.sourceforge.net/DTD/sodipodi-0.dtd"
   xmlns="http://www.w3.org/2000/svg"
   xmlns:svg="http://www.w3.org/2000/svg"
   xmlns:rdf="http://www.w3.org/1999/02/22-rdf-syntax-ns#"
   xmlns:cc="http://creativecommons.org/ns#"
   xmlns:dc="http://purl.org/dc/elements/1.1/">
  <defs
     id="defs2" />
  <sodipodi:namedview
     id="base"
     pagecolor="#ffffff"
     bordercolor="#666666"
     borderopacity="1.0"
     inkscape:pageopacity="0.0"
     inkscape:pageshadow="2"
     inkscape:zoom="0.24532453"
     inkscape:cx="1813.9238"
     inkscape:cy="898.80943"
     inkscape:document-units="px"
     inkscape:current-layer="layer1"
     showgrid="false"
     units="px"
     fit-margin-top="0"
     fit-margin-left="0"
     fit-margin-right="0"
     fit-margin-bottom="0"
     inkscape:showpageshadow="false"
     inkscape:snap-intersection-paths="true"
     inkscape:object-paths="false"
     inkscape:pagecheckerboard="true"
     inkscape:snap-smooth-nodes="true"
     inkscape:window-width="1920"
     inkscape:window-height="1057"
     inkscape:window-x="-8"
     inkscape:window-y="-8"
     inkscape:window-maximized="1"
     inkscape:object-nodes="true"
     inkscape:snap-nodes="true"
     showguides="true"
     inkscape:guide-bbox="true"
     inkscape:deskcolor="#505050" />
  <metadata
     id="metadata5">
    <rdf:RDF>
      <cc:Work
         rdf:about="">
        <dc:format>image/svg+xml</dc:format>
        <dc:type
           rdf:resource="http://purl.org/dc/dcmitype/StillImage" />
      </cc:Work>
    </rdf:RDF>
  </metadata>
  <g
     inkscape:label="レイヤー 1"
     inkscape:groupmode="layer"
     id="layer1"
     transform="translate(112.33452,-299.26786)">
    <path
       style="fill:#ffffff;fill-opacity:1;stroke:none;stroke-width:0.51166773px;stroke-linecap:butt;stroke-linejoin:miter;stroke-opacity:1"
       d="m -102.80952,299.26786 h -9.525 v 476.25 h 9.525 z"
       id="path1079"
       inkscape:connector-curvature="0"
       sodipodi:nodetypes="ccccc" />
    <path
       style="fill:#0038a8;fill-opacity:1;stroke:none;stroke-width:1.98167px;stroke-linecap:butt;stroke-linejoin:miter;stroke-opacity:1"
       d="m 849.69049,537.39286 v -238.125 h -952.50001 v 238.125 z"
       id="path814"
       inkscape:connector-curvature="0"
       sodipodi:nodetypes="ccccc" />
    <g
       id="g4006"
       style="fill:#ffc000;fill-opacity:1"
       transform="matrix(1.1696065,0,0,1.1696065,69.887133,-77.822813)">
      <path
         sodipodi:nodetypes="czczc"
         inkscape:connector-curvature="0"
         id="path3917"
         transform="matrix(0.26458333,0,0,0.26458333,-112.33452,299.26786)"
         d="m 796,619.99317 c -29.92283,57.88548 -90.33756,97.46191 -160,97.4619 -69.66244,-10e-6 -130.07717,-39.57642 -160,-97.46189 0,88.37238 71.63445,160.00683 160,160.00682 88.36555,0 160,-71.63445 160,-160.00683 z"
         style="opacity:1;fill:#ffc000;fill-opacity:1;fill-rule:evenodd;stroke:none;stroke-width:1.14687;stroke-linecap:round;stroke-linejoin:round;stroke-miterlimit:4;stroke-dasharray:none;stroke-dashoffset:0;stroke-opacity:1" />
      <path
         sodipodi:nodetypes="zzzzz"
         inkscape:connector-curvature="0"
         id="path3930"
         d="m 91.659237,441.46951 c -2e-6,19.72693 -15.99183,35.71875 -35.718751,35.71875 -19.726918,0 -35.718749,-15.99183 -35.718749,-35.71875 0,-19.72692 15.991822,-35.71876 35.718749,-35.71876 19.726924,0 35.718754,15.99183 35.718751,35.71876 z"
         style="opacity:1;fill:#ffc000;fill-opacity:1;fill-rule:evenodd;stroke:none;stroke-width:0.350389;stroke-linecap:round;stroke-linejoin:round;stroke-miterlimit:4;stroke-dasharray:none;stroke-dashoffset:0;stroke-opacity:1" />
      <path
         style="fill:#ffc000;fill-opacity:1;stroke:none;stroke-width:0.264583px;stroke-linecap:butt;stroke-linejoin:miter;stroke-opacity:1"
         d="m 63.095084,364.50079 c 0,-8.41086 -7.292131,-9.02578 -7.292131,-15.48133 0,-6.45555 1.652685,-6.25117 1.652685,-6.25117 -3.562495,0 -5.610963,3.17817 -5.610963,6.25117 0,3.073 1.636101,3.2872 1.636101,7.22969 0,3.94249 -4.694899,3.7922 -4.694899,8.25164 0,4.45944 3.185868,6.14833 3.185869,9.49994 0,2.19188 -1.776871,3.96875 -3.968752,3.96875 -2.191881,0 -3.968749,-1.77687 -3.968747,-3.96875 2e-6,-1.86763 0.823704,-3.58455 2.204455,-4.63059 0.682321,-0.51691 1.182988,-1.28333 1.182988,-2.20331 0,-1.03446 -0.58516,-1.9476 -1.464966,-2.36796 -0.64606,-0.30867 -1.261221,-0.70115 -1.792779,-1.23271 -2.32483,-2.32482 -2.32482,-6.09413 -10e-6,-8.41901 -2.44339,1.35314 -4.098457,3.9565 -4.098457,6.94737 0,0.88868 0.141756,1.7445 0.417007,2.54026 0.02204,0.0637 0.0019,0.13622 -0.04629,0.17585 -2.648453,2.18465 -4.339452,5.48885 -4.339452,9.19013 0,10.95939 8.88434,19.84374 19.843739,19.84374 10.959399,0 19.843739,-8.88435 19.843739,-19.84374 0,-3.70128 -1.690999,-7.00548 -4.339452,-9.19013 -0.04819,-0.0396 -0.06833,-0.11215 -0.04629,-0.17585 0.275251,-0.79576 0.417007,-1.65158 0.417007,-2.54026 0,-2.99087 -1.655067,-5.59423 -4.098457,-6.94737 2.32481,2.32488 2.32482,6.09419 -1e-5,8.41901 -0.531558,0.53156 -1.146719,0.92404 -1.792779,1.23271 -0.879806,0.42036 -1.464966,1.3335 -1.464966,2.36796 0,0.91998 0.500667,1.6864 1.182988,2.20331 1.380751,1.04604 2.204453,2.76296 2.204455,4.63059 2e-6,2.19188 -1.776866,3.96875 -3.968747,3.96875 -2.191881,0 -3.968752,-1.77687 -3.968753,-3.96875 -10e-7,-3.35161 3.185867,-5.0405 3.185867,-9.49994 z"
         id="path3992"
         inkscape:connector-curvature="0"
         sodipodi:nodetypes="szczzzssssssscsccszsccscssssssss" />
    </g>
    <path
       style="fill:#ffffff;fill-opacity:1;stroke:none;stroke-width:1.40125px;stroke-linecap:butt;stroke-linejoin:miter;stroke-opacity:1"
       d="m 849.69049,656.45536 v -119.0625 h -952.50001 v 119.0625 z"
       id="path1"
       inkscape:connector-curvature="0"
       sodipodi:nodetypes="ccccc" />
    <path
       style="fill:#ffc000;fill-opacity:1;stroke:none;stroke-width:1.40125px;stroke-linecap:butt;stroke-linejoin:miter;stroke-opacity:1"
       d="m 849.69049,775.51786 v -119.0625 h -952.50001 v 119.0625 z"
       id="path2"
       inkscape:connector-curvature="0"
       sodipodi:nodetypes="ccccc" />
  </g>
</svg>
